<svg xmlns="http://www.w3.org/2000/svg" viewBox="0 0 48 48" width="48" height="48">
<!-- Preview of the bereshit parasha emoji (ParashaEmojis.md): the holiday-icons palette, light and dark. -->
<style>
svg{--hol-line:#1a2744;--hol-gold:#c9922a;--hol-gold-lt:#f0d080;--hol-paper:#fffaf0;--hol-navy:#2a3b66;--hol-red:#c0392b;--hol-green:#3a7d44;--hol-blue:#3b6fb6;--hol-flame:#f0a030;--hol-ground:#fdf8ef;stroke:var(--hol-line);stroke-width:2;stroke-linecap:round;stroke-linejoin:round;fill:none}
@media (prefers-color-scheme:dark){svg{--hol-line:#e8e0d0;--hol-gold:#e0a832;--hol-gold-lt:#f5d97a;--hol-paper:#e8e0d0;--hol-navy:#5a6d9c;--hol-red:#e0584a;--hol-green:#5aa865;--hol-blue:#6a9ae0;--hol-flame:#f6b84a;--hol-ground:#161c2a}}
</style>
<path d="M44 10 L46 10 M42.1 14.5 L43.5 15.9 M37.6 16.4 L37.6 18.4 M33.1 14.5 L31.7 15.9 M31.2 10 L29.2 10 M33.1 5.5 L31.7 4.1 M37.6 3.6 L37.6 1.6 M42.1 5.5 L43.5 4.1" stroke-width="2"/><circle cx="37.6" cy="10" r="4.5" fill="var(--hol-flame)"/><path d="M8.6 3.8 A5.2 5.2 0 1 0 13.7 10.7 A4.3 4.3 0 0 1 8.6 3.8Z" fill="var(--hol-gold-lt)" stroke-width="1.6"/><circle cx="20" cy="29" r="14" fill="var(--hol-blue)" stroke="none"/><path d="M11.4 40 A14 14 0 0 1 9.6 19.6 C12.6 18 16.6 18.6 17.2 21.4 C17.8 24.2 14.4 25 15 27.6 C15.6 30.2 18.6 30.6 18.2 33.6 C17.8 36.6 14.4 37.6 11.4 40Z" fill="var(--hol-green)" stroke-width="1.4"/><path d="M25.2 16 A14 14 0 0 1 26.6 41.4 C25.4 39.6 24 36.6 25.6 34.2 C27.2 31.8 30.4 32.2 30.2 29.2 C30 26.2 25.8 26.6 25 23.6 C24.2 20.6 25.6 16.4 25.2 16Z" fill="var(--hol-green)" stroke-width="1.4"/><circle cx="20" cy="29" r="14"/><path d="M23 3.4 Q23.7 5.7 26 6.4 Q23.7 7.1 23 9.4 Q22.3 7.1 20 6.4 Q22.3 5.7 23 3.4Z" fill="var(--hol-gold-lt)" stroke-width="1.3"/><path d="M41.6 24.5 Q42.2 26.8 44.5 27.4 Q42.2 28 41.6 30.3 Q41 28 38.7 27.4 Q41 26.8 41.6 24.5Z" fill="var(--hol-gold-lt)" stroke-width="1.3"/>
</svg>
