<svg xmlns="http://www.w3.org/2000/svg" viewBox="0 0 48 48" width="48" height="48">
<!-- Preview of the reeh parasha emoji (ParashaEmojis.md): the holiday-icons palette, light and dark. -->
<style>
svg{--hol-line:#1a2744;--hol-gold:#c9922a;--hol-gold-lt:#f0d080;--hol-paper:#fffaf0;--hol-navy:#2a3b66;--hol-red:#c0392b;--hol-green:#3a7d44;--hol-blue:#3b6fb6;--hol-flame:#f0a030;--hol-ground:#fdf8ef;stroke:var(--hol-line);stroke-width:2;stroke-linecap:round;stroke-linejoin:round;fill:none}
@media (prefers-color-scheme:dark){svg{--hol-line:#e8e0d0;--hol-gold:#e0a832;--hol-gold-lt:#f5d97a;--hol-paper:#e8e0d0;--hol-navy:#5a6d9c;--hol-red:#e0584a;--hol-green:#5aa865;--hol-blue:#6a9ae0;--hol-flame:#f6b84a;--hol-ground:#161c2a}}
</style>
<path d="M28.4 30 L35 25.4 L35 38.8 L28.4 43.4Z" fill="var(--hol-navy)"/><path d="M6 30 L28.4 30 L28.4 43.4 L6 43.4Z" fill="var(--hol-blue)"/><path d="M6 30 L12.6 25.4 L35 25.4 L28.4 30Z" fill="var(--hol-paper)"/><path d="M13.4 27.7 H25.8" stroke="var(--hol-navy)" stroke-width="2.4"/><rect x="10.6" y="32.1" width="13.2" height="9.2" rx="2" fill="var(--hol-paper)" stroke-width="1.5"/><path d="M17.2 40.1 C16 39.1 13.8 37.4 13.8 35.6 C13.8 34.2 15 33.3 16 33.3 C16.7 33.3 17.1 33.7 17.2 34.2 C17.3 33.7 17.7 33.3 18.4 33.3 C19.4 33.3 20.6 34.2 20.6 35.6 C20.6 37.4 18.4 39.1 17.2 40.1Z" fill="var(--hol-red)" stroke-width="1.4"/><circle cx="19.6" cy="20.4" r="4.9" fill="var(--hol-gold)"/><path d="M16.9 19.4 A2.9 2.9 0 0 1 18.8 17.6" stroke="var(--hol-gold-lt)" stroke-width="1.5"/><path d="M40 13.1 C38.2 14.6 36 15.8 33.7 16.5 L30.2 8.5 C32.2 7.2 34.6 6.3 36.8 6.1Z" stroke-width="1.7"/><path d="M33.4 15.4 L30.2 18.8 M32.1 13.6 L26.8 16.9 M31.2 11.6 L25 13.6 M30.8 9.4 L25.1 9.8" stroke-width="3.9"/><path d="M34.7 7.6 L30.6 4.7" stroke-width="4.2"/><path d="M40 13.1 C38.2 14.6 36 15.8 33.7 16.5 L30.2 8.5 C32.2 7.2 34.6 6.3 36.8 6.1Z" fill="var(--hol-gold-lt)" stroke="none"/><path d="M33.4 15.4 L30.2 18.8 M32.1 13.6 L26.8 16.9 M31.2 11.6 L25 13.6 M30.8 9.4 L25.1 9.8" stroke="var(--hol-gold-lt)" stroke-width="2.3"/><path d="M34.7 7.6 L30.6 4.7" stroke="var(--hol-gold-lt)" stroke-width="2.5"/><path d="M39.8 13.9 L36.1 5.7 L40.1 3.9 L43.8 12.2Z" fill="var(--hol-red)" stroke-width="1.7"/><path d="M9 9 Q9.6 11.2 11.8 11.8 Q9.6 12.4 9 14.6 Q8.4 12.4 6.2 11.8 Q8.4 11.2 9 9Z" fill="var(--hol-gold-lt)" stroke-width="1.3"/>
</svg>
