<svg xmlns="http://www.w3.org/2000/svg" viewBox="0 0 48 48" width="48" height="48">
<!-- Preview of the shlach parasha emoji (ParashaEmojis.md): the holiday-icons palette, light and dark. -->
<style>
svg{--hol-line:#1a2744;--hol-gold:#c9922a;--hol-gold-lt:#f0d080;--hol-paper:#fffaf0;--hol-navy:#2a3b66;--hol-red:#c0392b;--hol-green:#3a7d44;--hol-blue:#3b6fb6;--hol-flame:#f0a030;--hol-ground:#fdf8ef;stroke:var(--hol-line);stroke-width:2;stroke-linecap:round;stroke-linejoin:round;fill:none}
@media (prefers-color-scheme:dark){svg{--hol-line:#e8e0d0;--hol-gold:#e0a832;--hol-gold-lt:#f5d97a;--hol-paper:#e8e0d0;--hol-navy:#5a6d9c;--hol-red:#e0584a;--hol-green:#5aa865;--hol-blue:#6a9ae0;--hol-flame:#f6b84a;--hol-ground:#161c2a}}
</style>
<g transform="translate(1.2 0)"><path d="M9 18.6 C2.6 17 2.4 25.6 6 27.8" stroke-width="4.6"/><path d="M9 18.6 C2.6 17 2.4 25.6 6 27.8" stroke="var(--hol-blue)" stroke-width="2.2"/><path d="M8.2 13 C8.6 15 9.2 16 9.4 17.4 C5.6 20 4.6 25 5 30 C5.4 35 7.2 39.4 9 42.4 L21 42.4 C22.8 39.4 24.6 35 25 30 C25.4 25 24.4 20 20.6 17.4 C20.8 16 21.4 14.6 22 13.4 L25.6 11.2 C24.6 10.4 23 10.6 21.6 11 C18 10 12 10 8.2 13Z" fill="var(--hol-blue)"/><path d="M8.6 13 C11 11 19 11 21.8 13.2 C21.6 14.4 21 15.4 20.4 15.6 C19.6 15.8 19.4 17.2 19.4 18.4 A1.5 1.5 0 0 1 16.4 18.4 C16.4 17.2 16.2 16.2 15 16.2 C13.8 16.2 13.4 17.6 13.4 20.4 A1.5 1.5 0 0 1 10.4 20.4 C10.4 17.8 10.2 16.4 9.4 15.4 C8.8 14.8 8.6 13.8 8.6 13Z" fill="var(--hol-paper)" stroke-width="1.4"/></g><path d="M29.2 18.1 L32.9 20.3 L32.9 24.5 L29.2 26.7 L25.5 24.5 L25.5 20.3Z M25.5 24.5 L29.2 26.7 L29.2 31 L25.5 33.2 L21.8 31 L21.8 26.7Z M40.4 24.5 L44.1 26.7 L44.1 31 L40.4 33.2 L36.6 31 L36.6 26.7Z M29.2 31 L32.9 33.2 L32.9 37.4 L29.2 39.6 L25.5 37.4 L25.5 33.2Z M36.6 31 L40.4 33.2 L40.4 37.4 L36.6 39.6 L32.9 37.4 L32.9 33.2Z" fill="var(--hol-gold-lt)"/><path d="M36.6 18.1 L40.4 20.3 L40.4 24.5 L36.6 26.7 L32.9 24.5 L32.9 20.3Z M32.9 24.5 L36.6 26.7 L36.6 31 L32.9 33.2 L29.2 31 L29.2 26.7Z" fill="var(--hol-gold)"/><path d="M32.9 20.3 L32.9 24.5 M32.9 24.5 L29.2 26.7 M29.2 26.7 L25.5 24.5 M40.4 24.5 L36.6 26.7 M36.6 26.7 L32.9 24.5 M29.2 26.7 L29.2 31 M29.2 31 L25.5 33.2 M36.6 26.7 L36.6 31 M36.6 31 L32.9 33.2 M32.9 33.2 L29.2 31 M40.4 33.2 L36.6 31 M32.9 33.2 L32.9 37.4" stroke="var(--hol-navy)" stroke-width="1.4"/><path d="M35 38.6 L36.6 39.6 L38.2 38.6 C38.3 41 38.6 41.6 38.6 42.6 A2 2 0 0 1 34.6 42.6 C34.6 41.6 34.9 41 35 38.6Z" fill="var(--hol-gold)" stroke-width="1.5"/>
</svg>
