<svg xmlns="http://www.w3.org/2000/svg" viewBox="0 0 48 48" width="48" height="48">
<!-- Preview of the vayishlach parasha emoji (ParashaEmojis.md): the holiday-icons palette, light and dark. -->
<style>
svg{--hol-line:#1a2744;--hol-gold:#c9922a;--hol-gold-lt:#f0d080;--hol-paper:#fffaf0;--hol-navy:#2a3b66;--hol-red:#c0392b;--hol-green:#3a7d44;--hol-blue:#3b6fb6;--hol-flame:#f0a030;--hol-ground:#fdf8ef;stroke:var(--hol-line);stroke-width:2;stroke-linecap:round;stroke-linejoin:round;fill:none}
@media (prefers-color-scheme:dark){svg{--hol-line:#e8e0d0;--hol-gold:#e0a832;--hol-gold-lt:#f5d97a;--hol-paper:#e8e0d0;--hol-navy:#5a6d9c;--hol-red:#e0584a;--hol-green:#5aa865;--hol-blue:#6a9ae0;--hol-flame:#f6b84a;--hol-ground:#161c2a}}
</style>
<path d="M38.4 29.5 C34.7 27.6 30.9 26.9 26 26.3 L23.8 37.9 C28.6 38.6 32.5 39.2 36.5 39.3Z" fill="var(--hol-gold-lt)"/><path d="M37.2 27.1 L43.3 27.7 A1 1 0 0 1 44.1 28.8 L41.3 43.1 A1 1 0 0 1 40.2 43.8 L34.3 42.1Z" fill="var(--hol-blue)"/><path d="M10 30.7 C13.1 28.8 15.6 26 19.7 24.2 C22.7 22.9 25.9 22.2 28.8 21.7 A1.8 1.8 0 0 1 29.6 25.2 C26.3 25.9 23.8 26.7 21.8 27.8 L24.4 27.8 L26.2 38.7 C20 40 16.1 40.4 11.5 40.1Z" fill="var(--hol-gold-lt)"/><path d="M20.8 26.4 L28.4 25.2 A1.6 1.6 0 0 1 28.9 28.4 L30.4 28.1 A1.6 1.6 0 0 1 30.9 31.3 L30.7 31.3 A1.6 1.6 0 0 1 31.2 34.5 L29.9 34.8 A1.6 1.6 0 0 1 30.4 37.9 L22.8 39.1Z" fill="var(--hol-gold-lt)" stroke="none"/><path d="M23.5 25.9 L28.4 25.2 A1.6 1.6 0 0 1 28.9 28.4 L30.4 28.1 A1.6 1.6 0 0 1 30.9 31.3 L30.7 31.3 A1.6 1.6 0 0 1 31.2 34.5 L29.9 34.8 A1.6 1.6 0 0 1 30.4 37.9 L23.6 39"/><path d="M24.8 29 L28.9 28.4 M25.3 32.2 L30.9 31.3 M25.8 35.4 L31.2 34.5" stroke-width="1.4"/><path d="M19.7 24.2 C22.7 22.9 25.9 22.2 28.8 21.7 A1.8 1.8 0 0 1 29.6 25.2 C26.3 25.9 23.8 26.7 21.8 27.8 L20.3 28Z" fill="var(--hol-gold-lt)" stroke="none"/><path d="M19.7 24.2 C22.7 22.9 25.9 22.2 28.8 21.7 A1.8 1.8 0 0 1 29.6 25.2 C26.3 25.9 23.8 26.7 21.8 27.8"/><path d="M11 27.3 L5 27.7 A1 1 0 0 0 4.1 28.8 L6.4 43.1 A1 1 0 0 0 7.5 44 L13.4 42.4Z" fill="var(--hol-red)"/><path d="M26.6 14.6 C25.1 13.3 22.2 11.1 22.2 8.7 C22.2 6.9 23.7 5.8 25 5.8 C25.9 5.8 26.4 6.3 26.6 6.9 C26.8 6.3 27.3 5.8 28.2 5.8 C29.5 5.8 31 6.9 31 8.7 C31 11.1 28.1 13.3 26.6 14.6Z" fill="var(--hol-red)" stroke-width="1.6"/>
</svg>
