<svg xmlns="http://www.w3.org/2000/svg" viewBox="0 0 48 48" width="48" height="48">
<!-- Preview of the vzothaberachah parasha emoji (ParashaEmojis.md): the holiday-icons palette, light and dark. -->
<style>
svg{--hol-line:#1a2744;--hol-gold:#c9922a;--hol-gold-lt:#f0d080;--hol-paper:#fffaf0;--hol-navy:#2a3b66;--hol-red:#c0392b;--hol-green:#3a7d44;--hol-blue:#3b6fb6;--hol-flame:#f0a030;--hol-ground:#fdf8ef;stroke:var(--hol-line);stroke-width:2;stroke-linecap:round;stroke-linejoin:round;fill:none}
@media (prefers-color-scheme:dark){svg{--hol-line:#e8e0d0;--hol-gold:#e0a832;--hol-gold-lt:#f5d97a;--hol-paper:#e8e0d0;--hol-navy:#5a6d9c;--hol-red:#e0584a;--hol-green:#5aa865;--hol-blue:#6a9ae0;--hol-flame:#f6b84a;--hol-ground:#161c2a}}
</style>
<g transform="rotate(12 8.9 43.6)"><path d="M8.9 9.4 L8.9 42.4" stroke-width="4.8"/><path d="M8.9 9.4 L8.9 42.4" stroke="var(--hol-gold)" stroke-width="2.4"/><path d="M10.4 12 L11.9 11.3 L13.4 10.6 L14.9 10 L16.4 9.6 L17.8 9.3 L19.3 9.2 L20.8 9.3 L22.3 9.6 L23.8 10 L25.3 10.6 L26.8 11.3 L28.3 12 L29.8 12.7 L31.2 13.4 L32.7 14 L34.2 14.4 L35.7 14.7 L37.2 14.8 L37.2 34.8 L35.7 34.7 L34.2 34.4 L32.7 34 L31.2 33.4 L29.8 32.7 L28.3 32 L26.8 31.3 L25.3 30.6 L23.8 30 L22.3 29.6 L20.8 29.3 L19.3 29.2 L17.8 29.3 L16.4 29.6 L14.9 30 L13.4 30.6 L11.9 31.3 L10.4 32Z" fill="var(--hol-paper)"/><path d="M13 13.4 L14.2 12.9 L15.4 12.4 L16.6 12.1 L17.8 11.9 L19 11.8 L20.2 11.8 L21.4 12 L22.6 12.2 L23.8 12.6 L25 13.1 L26.2 13.6 L27.4 14.2 L28.6 14.8 L29.8 15.3 L31 15.9 L32.2 16.4 L33.4 16.8 L34.6 17.1 L34.6 31.9 L33.4 31.6 L32.2 31.2 L31 30.7 L29.8 30.1 L28.6 29.6 L27.4 29 L26.2 28.4 L25 27.9 L23.8 27.4 L22.6 27 L21.4 26.8 L20.2 26.6 L19 26.6 L17.8 26.7 L16.6 26.9 L15.4 27.2 L14.2 27.7 L13 28.2Z" stroke="var(--hol-blue)" stroke-width="2.2"/><rect x="19.6" y="16.3" width="8.4" height="7.4" fill="var(--hol-gold-lt)" stroke="var(--hol-navy)" stroke-width="1.3"/><path d="M21.2 18.8 H26.4 M21.2 21.4 H25.2" stroke="var(--hol-navy)" stroke-width="1.1"/><path d="M17.2 16 A1.2 1.2 0 0 1 19.6 16 V24 A1.2 1.2 0 0 1 17.2 24Z M28 16 A1.2 1.2 0 0 1 30.4 16 V24 A1.2 1.2 0 0 1 28 24Z" fill="var(--hol-gold)" stroke="var(--hol-navy)" stroke-width="1.3"/><circle cx="8.9" cy="8.2" r="3" fill="var(--hol-red)"/><circle cx="7.9" cy="7.2" r="0.8" fill="var(--hol-paper)" stroke="none"/></g><path d="M38.8 5.4 Q39.5 7.9 42 8.6 Q39.5 9.3 38.8 11.8 Q38.1 9.3 35.6 8.6 Q38.1 7.9 38.8 5.4Z" fill="var(--hol-gold-lt)" stroke-width="1.3"/><path d="M5.8 19.2 Q6.3 20.9 8 21.4 Q6.3 21.9 5.8 23.6 Q5.3 21.9 3.6 21.4 Q5.3 20.9 5.8 19.2Z" fill="var(--hol-gold-lt)" stroke-width="1.3"/><path d="M42.6 39.4 Q43.1 41.1 44.8 41.6 Q43.1 42.1 42.6 43.8 Q42.1 42.1 40.4 41.6 Q42.1 41.1 42.6 39.4Z" fill="var(--hol-gold-lt)" stroke-width="1.3"/>
</svg>
